<?xml version="1.0" encoding="UTF-8" standalone="no"?>
<!DOCTYPE svg PUBLIC "-//W3C//DTD SVG 1.1//EN"
 "http://www.w3.org/Graphics/SVG/1.1/DTD/svg11.dtd">
<!-- Generated by graphviz version 5.0.0 (20220707.1540)
 -->
<!-- Title: dependencies Pages: 1 -->
<svg width="494pt" height="174pt"
 viewBox="0.00 0.00 494.00 173.80" xmlns="http://www.w3.org/2000/svg" xmlns:xlink="http://www.w3.org/1999/xlink">
<g id="graph0" class="graph" transform="scale(1 1) rotate(0) translate(4 169.8)">
<title>dependencies</title>
<polygon fill="white" stroke="transparent" points="-4,4 -4,-169.8 490,-169.8 490,4 -4,4"/>
<text text-anchor="middle" x="243" y="-8.2" font-family="sans-serif" font-size="14.00">dependencies</text>
<g id="clust1" class="cluster">
<title>cluster_ApplicationModule</title>
<polygon fill="none" stroke="black" stroke-dasharray="1,5" points="8,-32.8 8,-157.8 478,-157.8 478,-32.8 8,-32.8"/>
</g>
<g id="clust3" class="cluster">
<title>cluster_ApplicationModule_imports</title>
<polygon fill="none" stroke="black" points="16,-40.8 16,-92.8 470,-92.8 470,-40.8 16,-40.8"/>
</g>
<!-- AuthModule -->
<g id="node1" class="node">
<title>AuthModule</title>
<polygon fill="#8dd3c7" stroke="black" points="461.55,-84.8 458.55,-88.8 437.55,-88.8 434.55,-84.8 374.45,-84.8 374.45,-48.8 461.55,-48.8 461.55,-84.8"/>
<text text-anchor="middle" x="418" y="-62.6" font-family="Times,serif" font-size="14.00">AuthModule</text>
</g>
<!-- ApplicationModule -->
<g id="node5" class="node">
<title>ApplicationModule</title>
<polygon fill="#8dd3c7" stroke="black" points="297.65,-149.8 294.65,-153.8 273.65,-153.8 270.65,-149.8 172.35,-149.8 172.35,-113.8 297.65,-113.8 297.65,-149.8"/>
<text text-anchor="middle" x="235" y="-127.6" font-family="Times,serif" font-size="14.00">ApplicationModule</text>
</g>
<!-- AuthModule&#45;&gt;ApplicationModule -->
<g id="edge1" class="edge">
<title>AuthModule&#45;&gt;ApplicationModule</title>
<path fill="none" stroke="black" d="M418,-84.91C418,-104.14 418,-131.8 418,-131.8 418,-131.8 307.72,-131.8 307.72,-131.8"/>
<polygon fill="black" stroke="black" points="307.72,-128.3 297.72,-131.8 307.72,-135.3 307.72,-128.3"/>
</g>
<!-- DocumentModule -->
<g id="node2" class="node">
<title>DocumentModule</title>
<polygon fill="#8dd3c7" stroke="black" points="355.87,-84.8 352.87,-88.8 331.87,-88.8 328.87,-84.8 238.13,-84.8 238.13,-48.8 355.87,-48.8 355.87,-84.8"/>
<text text-anchor="middle" x="297" y="-62.6" font-family="Times,serif" font-size="14.00">DocumentModule</text>
</g>
<!-- DocumentModule&#45;&gt;ApplicationModule -->
<g id="edge2" class="edge">
<title>DocumentModule&#45;&gt;ApplicationModule</title>
<path fill="none" stroke="black" d="M267.94,-84.91C267.94,-84.91 267.94,-103.79 267.94,-103.79"/>
<polygon fill="black" stroke="black" points="264.44,-103.79 267.94,-113.79 271.44,-103.79 264.44,-103.79"/>
</g>
<!-- RolesModule -->
<g id="node3" class="node">
<title>RolesModule</title>
<polygon fill="#8dd3c7" stroke="black" points="219.94,-84.8 216.94,-88.8 195.94,-88.8 192.94,-84.8 128.06,-84.8 128.06,-48.8 219.94,-48.8 219.94,-84.8"/>
<text text-anchor="middle" x="174" y="-62.6" font-family="Times,serif" font-size="14.00">RolesModule</text>
</g>
<!-- RolesModule&#45;&gt;ApplicationModule -->
<g id="edge3" class="edge">
<title>RolesModule&#45;&gt;ApplicationModule</title>
<path fill="none" stroke="black" d="M195.95,-84.91C195.95,-84.91 195.95,-103.79 195.95,-103.79"/>
<polygon fill="black" stroke="black" points="192.45,-103.79 195.95,-113.79 199.45,-103.79 192.45,-103.79"/>
</g>
<!-- UserModule -->
<g id="node4" class="node">
<title>UserModule</title>
<polygon fill="#8dd3c7" stroke="black" points="109.99,-84.8 106.99,-88.8 85.99,-88.8 82.99,-84.8 24.01,-84.8 24.01,-48.8 109.99,-48.8 109.99,-84.8"/>
<text text-anchor="middle" x="67" y="-62.6" font-family="Times,serif" font-size="14.00">UserModule</text>
</g>
<!-- UserModule&#45;&gt;ApplicationModule -->
<g id="edge4" class="edge">
<title>UserModule&#45;&gt;ApplicationModule</title>
<path fill="none" stroke="black" d="M67,-84.91C67,-104.14 67,-131.8 67,-131.8 67,-131.8 161.97,-131.8 161.97,-131.8"/>
<polygon fill="black" stroke="black" points="161.97,-135.3 171.97,-131.8 161.96,-128.3 161.97,-135.3"/>
</g>
</g>
</svg>
