<?xml version="1.0" encoding="UTF-8" standalone="no"?>
<!DOCTYPE svg PUBLIC "-//W3C//DTD SVG 1.1//EN"
 "http://www.w3.org/Graphics/SVG/1.1/DTD/svg11.dtd">
<!-- Generated by graphviz version 5.0.0 (20220707.1540)
 -->
<!-- Title: dependencies Pages: 1 -->
<svg width="322pt" height="174pt"
 viewBox="0.00 0.00 322.00 173.80" xmlns="http://www.w3.org/2000/svg" xmlns:xlink="http://www.w3.org/1999/xlink">
<g id="graph0" class="graph" transform="scale(1 1) rotate(0) translate(4 169.8)">
<title>dependencies</title>
<polygon fill="white" stroke="transparent" points="-4,4 -4,-169.8 318,-169.8 318,4 -4,4"/>
<text text-anchor="middle" x="157" y="-8.2" font-family="sans-serif" font-size="14.00">dependencies</text>
<g id="clust1" class="cluster">
<title>cluster_RolesModule</title>
<polygon fill="none" stroke="black" stroke-dasharray="1,5" points="8,-32.8 8,-157.8 306,-157.8 306,-32.8 8,-32.8"/>
</g>
<g id="clust3" class="cluster">
<title>cluster_RolesModule_imports</title>
<polygon fill="none" stroke="black" points="164,-40.8 164,-92.8 298,-92.8 298,-40.8 164,-40.8"/>
</g>
<g id="clust6" class="cluster">
<title>cluster_RolesModule_providers</title>
<polygon fill="none" stroke="black" points="16,-40.8 16,-92.8 156,-92.8 156,-40.8 16,-40.8"/>
</g>
<!-- DocumentModule -->
<g id="node1" class="node">
<title>DocumentModule</title>
<polygon fill="#8dd3c7" stroke="black" points="289.87,-84.8 286.87,-88.8 265.87,-88.8 262.87,-84.8 172.13,-84.8 172.13,-48.8 289.87,-48.8 289.87,-84.8"/>
<text text-anchor="middle" x="231" y="-62.6" font-family="Times,serif" font-size="14.00">DocumentModule</text>
</g>
<!-- RolesModule -->
<g id="node2" class="node">
<title>RolesModule</title>
<polygon fill="#8dd3c7" stroke="black" points="203.94,-149.8 200.94,-153.8 179.94,-153.8 176.94,-149.8 112.06,-149.8 112.06,-113.8 203.94,-113.8 203.94,-149.8"/>
<text text-anchor="middle" x="158" y="-127.6" font-family="Times,serif" font-size="14.00">RolesModule</text>
</g>
<!-- DocumentModule&#45;&gt;RolesModule -->
<g id="edge1" class="edge">
<title>DocumentModule&#45;&gt;RolesModule</title>
<path fill="none" stroke="black" d="M187.89,-84.91C187.89,-84.91 187.89,-103.79 187.89,-103.79"/>
<polygon fill="black" stroke="black" points="184.39,-103.79 187.89,-113.79 191.39,-103.79 184.39,-103.79"/>
</g>
<!-- RolesService -->
<g id="node3" class="node">
<title>RolesService</title>
<ellipse fill="#fdb462" stroke="black" cx="86" cy="-66.8" rx="61.98" ry="18"/>
<text text-anchor="middle" x="86" y="-62.6" font-family="Times,serif" font-size="14.00">RolesService</text>
</g>
<!-- RolesService&#45;&gt;RolesModule -->
<g id="edge2" class="edge">
<title>RolesService&#45;&gt;RolesModule</title>
<path fill="none" stroke="black" d="M130.13,-79.64C130.13,-79.64 130.13,-103.32 130.13,-103.32"/>
<polygon fill="black" stroke="black" points="126.63,-103.32 130.13,-113.32 133.63,-103.32 126.63,-103.32"/>
</g>
</g>
</svg>
